<svg xmlns="http://www.w3.org/2000/svg" xmlns:xlink="http://www.w3.org/1999/xlink" width="112" height="112" viewBox="0 0 112 112">
  <defs>
    <linearGradient id="linear-gradient" x1="0.569" y1="0.972" x2="0.565" y2="-0.058" gradientUnits="objectBoundingBox">
      <stop offset="0" stop-color="#333"/>
      <stop offset="1" stop-color="#4d4d4d"/>
    </linearGradient>
    <linearGradient id="linear-gradient-2" x1="0.501" y1="0.752" x2="0.495" y2="-0.584" gradientUnits="objectBoundingBox">
      <stop offset="0" stop-color="#666"/>
      <stop offset="1" stop-color="gray"/>
    </linearGradient>
  </defs>
  <g id="Group_845" data-name="Group 845" transform="translate(-4 -347)">
    <path id="Path_212" data-name="Path 212" d="M56,0A56,56,0,1,1,0,56,56,56,0,0,1,56,0Z" transform="translate(4 347)" fill="#e8e8e8"/>
    <g id="Group_844" data-name="Group 844" transform="translate(-14.487 -2.933)" opacity="0.7">
      <path id="Path_196" data-name="Path 196" d="M241.108,225.438c-.845,4.482-5.2,4.725-10.483,4.862H193.542c-6.02,0-9.247-4.7-7.17-9.223l11.053-33.989c.824-4.411,5.513-7.184,10.489-6.454l32.877,6.311c4.977.732,8.344,4.9,7.52,9.313Z" transform="translate(-148.476 200.124)" fill="url(#linear-gradient)"/>
      <path id="Path_197" data-name="Path 197" d="M351.42,218.12a8.948,8.948,0,0,1-1.709.609l-10.454,2.6-4.108,1.024-1.775.443-5.751,1.435-5.491,1.369-6.14,1.534-5.685,1.418a9.068,9.068,0,0,1-6.251-.714,7.716,7.716,0,0,1-3.952-4.5l-2.222-7.074-3.7-11.755-5.052-16.1a6.081,6.081,0,0,1-.242-1.149,7.427,7.427,0,0,1,5.294-7.631,9.656,9.656,0,0,1,2.118-.464l7.749-.009,11.942-.015h1.064l7.345-.009.014.046h.076c6.331-.264,12.016,1.085,14.291,5.743q.147.3.275.618l4.821,12.686Z" transform="translate(-240.395 201.352)" fill="#141414"/>
      <path id="Path_198" data-name="Path 198" d="M406.14,202.673l-6.464,17.866-2.264,6.262-.344.948c-.7,2.965-2.853,4.6-6.157,5.329q-.434.1-.9.171a22.743,22.743,0,0,1-2.57.262H365.174c-4.4-.812-7.229-4.866-6.312-8.768l1.279-4.029,6.177-19.433,3.419-10.772.2-.635a7.094,7.094,0,0,1,2.674-4.015,8.8,8.8,0,0,1,5.642-1.731,8.909,8.909,0,0,1,1.222.128c.029.005.06.01.089.016l8.02,1.9,13.468,3.191q.148.3.275.618Z" transform="translate(-302.658 196.913)" fill="url(#linear-gradient-2)"/>
      <path id="Path_199" data-name="Path 199" d="M496.024,229.161H485.137c-1.3,0-2.439-.044-3.443-.143-.34-.034-.662-.072-.971-.118-.124-.017-.246-.037-.366-.058-2.682-.455-4.21-1.431-5.253-3.147a11.54,11.54,0,0,1-1.085-2.5l-5.045-13.129-8.153-21.215a7.637,7.637,0,0,1-.368-2.689,8.064,8.064,0,0,1,1.8-4.852,5.517,5.517,0,0,1,4.34-2.033c.789,0,1.592.008,2.387.01h1.075c3.617.007,6.822-.01,7.348-.011h.076c6.331-.264,12.016,1.085,14.291,5.743q.147.3.275.618l4.813,12.69L504.4,218.21l1.106,2.916C507.183,226.291,505.011,229.161,496.024,229.161Z" transform="translate(-393.374 201.263)" fill="#030202"/>
    </g>
  </g>
</svg>
